<svg width="249" height="63" viewBox="0 0 249 63" fill="none" xmlns="http://www.w3.org/2000/svg">
<ellipse opacity="0.07" cx="29.5" cy="61.5" rx="20.5" ry="1.5" fill="black"/>
<path d="M48.8553 43.3549L48.8554 43.3549L48.8586 43.3572C48.9225 43.404 49.0284 43.4362 49.1973 43.4136C49.3672 43.3908 49.5838 43.3139 49.8391 43.1648C50.349 42.8671 50.9739 42.3043 51.6257 41.4333C52.2602 40.5734 52.8829 39.4265 53.3133 38.0863C53.7345 36.7488 53.9757 35.2291 53.8945 33.7237C53.7974 32.2244 53.3891 30.914 52.8348 29.8923C52.2721 28.8751 51.5523 28.1613 50.8604 27.7275C50.1492 27.2927 49.5039 27.1343 48.9983 27.1541C48.4902 27.174 48.1392 27.3704 47.9656 27.6291L47.9642 27.6311C47.7591 27.9302 47.7002 28.3143 47.7468 28.811C47.7936 29.3102 47.9425 29.8838 48.1162 30.5419C48.2423 31.0085 48.4597 31.4727 48.7004 31.9868C48.7863 32.1703 48.8752 32.36 48.964 32.5586C49.2951 33.2992 49.6071 34.1296 49.6714 35.1004L49.6714 35.1004L49.6716 35.1039C49.7224 36.0738 49.5212 37.0744 49.2914 38.0013C49.2288 38.2536 49.1646 38.4991 49.1023 38.7372C48.9318 39.3885 48.7759 39.9844 48.7082 40.5138C48.6174 41.253 48.54 41.9 48.553 42.4123C48.5665 42.9409 48.6756 43.2276 48.8553 43.3549Z" fill="white" stroke="#444444" stroke-width="0.5"/>
<path d="M9.91371 57.5227L9.91365 57.5227C9.60391 57.7287 9.26719 57.6998 8.99598 57.5089C8.71952 57.3143 8.50635 56.9437 8.50635 56.4671V25.3042C8.50635 11.4233 17.9048 0.25 29.4089 0.25C40.9129 0.25 50.3114 11.4233 50.3114 25.3042V56.4671C50.3114 56.9437 50.0982 57.3143 49.8218 57.5089C49.5506 57.6998 49.2138 57.7287 48.9039 57.5227L48.9039 57.5227L46.0562 55.6303C42.2752 53.1174 37.6646 53.1506 33.9099 55.7174L32.2663 56.8409C30.4933 58.053 28.3245 58.053 26.5514 56.8409L24.9079 55.7174C21.1531 53.1506 16.5425 53.1174 12.7615 55.6303L9.91371 57.5227Z" fill="white" stroke="#444444" stroke-width="0.5"/>
<path fill-rule="evenodd" clip-rule="evenodd" d="M29.876 0C18.4518 0 38.7412 11.3457 38.7412 25.3413L26.9452 57.1309H26.944C26.944 57.1309 30.9912 58.4031 32.8083 57.1309L34.4155 56.0058C38.0054 53.4927 42.406 53.4604 46.0204 55.9204L48.8052 57.8155C49.5933 58.352 50.5614 57.6541 50.5614 56.5499V25.3413C50.5614 11.3457 41.3002 0 29.876 0Z" fill="black" fill-opacity="0.1"/>
<path d="M33.9765 20.0556C32.0126 22.0054 32.0076 25.1703 33.9782 27.1267C35.9438 29.0781 39.1334 29.0781 41.0989 27.1267C43.0662 25.1736 43.0696 22.0104 41.1006 20.0556C39.1317 18.1009 35.9438 18.1026 33.9765 20.0556ZM39.2485 23.3096C38.3647 24.187 36.9223 24.1904 36.0335 23.308C35.1481 22.4289 35.1531 20.9986 36.0369 20.1212C36.9223 19.2421 38.3614 19.2388 39.2468 20.1178C40.139 21.0036 40.1339 22.4306 39.2485 23.3096Z" fill="#1E1E1E"/>
<path d="M18.8676 20.0556C16.9037 22.0054 16.8986 25.1703 18.8692 27.1267C20.8348 29.0781 24.0244 29.0781 25.99 27.1267C27.9572 25.1736 27.9606 22.0104 25.9917 20.0556C24.0227 18.1009 20.8348 18.1026 18.8676 20.0556ZM24.1395 23.3096C23.2558 24.187 21.8134 24.1904 20.9245 23.308C20.0391 22.4289 20.0442 20.9986 20.9279 20.1212C21.8134 19.2421 23.2524 19.2388 24.1378 20.1178C25.0301 21.0036 25.025 22.4306 24.1395 23.3096Z" fill="#444444"/>
<path d="M24.3726 35.4516C26.7135 33.5053 33.079 33.527 35.4524 35.4516V36.4514C32.657 35.852 26.9878 35.9176 24.3726 36.4514V35.4516Z" fill="#606060"/>
<ellipse cx="7.4215" cy="7.42078" rx="7.4215" ry="7.42078" transform="matrix(0.714367 0.699771 -0.704922 0.709285 22.821 14.1008)" fill="#654DF7"/>
<path d="M15.1642 29.5625L17.9545 32.2958L4.96021 45.3706C4.57089 45.7623 3.93545 45.7666 3.54092 45.3801L2.1793 44.0463C1.78477 43.6598 1.78054 43.029 2.16985 42.6373L15.1642 29.5625Z" fill="#444444"/>
<path d="M16.8206 29.001L18.4949 30.641L16.8429 32.3031L15.1687 30.6631L16.8206 29.001Z" fill="#444444"/>
<path d="M28.7509 30.2975C25.5577 33.5105 20.3456 33.5451 17.1094 30.375C13.8732 27.2049 13.8382 22.0304 17.0314 18.8175C20.2245 15.6046 25.4366 15.5699 28.6728 18.74C31.9091 21.9102 31.944 27.0846 28.7509 30.2975ZM18.1747 19.9375C15.6046 22.5235 15.6327 26.6883 18.2375 29.2399C20.8423 31.7915 25.0374 31.7636 27.6075 29.1776C30.1776 26.5915 30.1495 22.4267 27.5447 19.8751C24.9399 17.3236 20.7448 17.3515 18.1747 19.9375Z" fill="#444444"/>
<path d="M5.67534 44.4816L5.67533 44.4816L5.67154 44.4828C5.59569 44.5078 5.48463 44.5057 5.3311 44.4322C5.1767 44.3582 4.99481 44.2185 4.79871 43.9982C4.40704 43.5583 3.98882 42.8311 3.64122 41.8024C3.30662 40.7898 3.07296 39.5078 3.08244 38.1012C3.09986 36.7001 3.34542 35.1812 3.893 33.775C4.45373 32.3795 5.25145 31.2592 6.09784 30.4585C6.9509 29.6645 7.85854 29.2073 8.65217 29.0078C9.46459 28.8133 10.1279 28.8614 10.6026 29.0359C11.0797 29.2112 11.3517 29.5059 11.4358 29.8048L11.4365 29.8072C11.5379 30.1542 11.4741 30.5372 11.2745 30.9952C11.074 31.4553 10.7532 31.9549 10.3824 32.527C10.1166 32.9319 9.76489 33.3063 9.37527 33.7211C9.2363 33.869 9.0925 34.0221 8.94608 34.1835C8.39981 34.7856 7.84375 35.479 7.47921 36.3823L7.47919 36.3823L7.47795 36.3855C7.12656 37.2921 7.00515 38.3054 6.93407 39.2574C6.91471 39.5166 6.89909 39.7698 6.88393 40.0154C6.84249 40.687 6.80457 41.3014 6.7035 41.8255C6.55891 42.5563 6.43029 43.1952 6.25787 43.6782C6.08 44.1764 5.88667 44.4158 5.67534 44.4816Z" fill="white" stroke="#444444" stroke-width="0.5"/>
<path d="M79.341 15.578C81.637 15.168 83.6323 15.0587 85.327 15.25C87.049 15.414 88.5933 15.865 89.96 16.603C91.354 17.341 91.969 18.2703 91.805 19.391C91.6683 20.5117 91.1217 21.2087 90.165 21.482C89.2357 21.7553 88.3473 21.564 87.5 20.908C86.68 20.2247 84.9033 19.8283 82.17 19.719C79.464 19.6097 77.291 20.7167 75.651 23.04C74.0383 25.336 73.2867 28.001 73.396 31.035C73.5327 34.069 74.134 36.3923 75.2 38.005C76.2933 39.5903 77.742 40.6563 79.546 41.203C81.3773 41.7223 84.0423 41.8317 87.541 41.531V32.921L81.719 32.88C80.5163 32.798 79.915 31.9917 79.915 30.461C79.915 28.9303 80.5573 28.165 81.842 28.165H88.771C91.1763 28.0283 92.2013 29.2173 91.846 31.732V43.417C91.518 44.975 90.6433 45.8087 89.222 45.918C86.7893 46.1913 84.1243 46.246 81.227 46.082C78.3297 45.9453 75.856 45.1117 73.806 43.581C71.7833 42.023 70.3483 39.8773 69.501 37.144C68.6537 34.4107 68.476 31.2263 68.968 27.591C69.4873 23.9557 70.772 21.1403 72.822 19.145C74.8993 17.1497 77.0723 15.9607 79.341 15.578ZM96.3262 16.849C96.2989 15.701 97.0369 15.127 98.5402 15.127C100.071 15.127 100.836 15.7147 100.836 16.89V27.468C102.832 24.844 105.647 23.8873 109.282 24.598C112.918 25.3087 114.845 27.7277 115.063 31.855V44.606C115.063 45.7813 114.284 46.3553 112.726 46.328C111.196 46.328 110.471 45.7403 110.553 44.565V33.864C110.745 30.8847 109.665 29.2037 107.314 28.821C104.964 28.4383 102.832 29.477 100.918 31.937V44.729C100.836 45.7677 100.057 46.287 98.5812 46.287C97.1052 46.3143 96.3535 45.754 96.3262 44.606V16.849ZM120.779 28.575C122.173 26.6617 123.635 25.418 125.166 24.844C126.697 24.2427 128.255 23.9693 129.84 24.024C131.425 24.0513 132.915 24.4203 134.309 25.131C135.73 25.8417 137.015 27.0307 138.163 28.698C139.311 30.3653 139.871 32.716 139.844 35.75C139.817 38.7567 139.092 41.1073 137.671 42.802C136.25 44.4693 134.842 45.549 133.448 46.041C132.054 46.533 130.715 46.779 129.43 46.779C128.145 46.779 126.724 46.533 125.166 46.041C123.635 45.5763 122.2 44.5103 120.861 42.843C119.522 41.1483 118.825 38.825 118.77 35.873C118.715 32.8937 119.385 30.461 120.779 28.575ZM133.571 29.723C132.259 28.4383 130.797 27.8233 129.184 27.878C127.599 27.9053 126.164 28.5887 124.879 29.928C123.594 31.24 122.952 33.085 122.952 35.463C122.979 37.841 123.635 39.6313 124.92 40.834C126.232 42.0093 127.694 42.5833 129.307 42.556C130.947 42.5287 132.409 41.941 133.694 40.793C135.006 39.645 135.648 37.841 135.621 35.381C135.594 32.8937 134.91 31.0077 133.571 29.723ZM148.41 24.229C149.996 23.7643 151.663 23.6687 153.412 23.942C155.162 24.2153 156.433 24.68 157.225 25.336C158.045 25.992 158.524 26.6617 158.66 27.345C158.797 28.001 158.647 28.5613 158.209 29.026C157.772 29.4907 157.294 29.7093 156.774 29.682C156.282 29.6547 155.777 29.3677 155.257 28.821C154.738 28.2743 153.686 27.8917 152.1 27.673C150.515 27.427 149.244 27.6183 148.287 28.247C147.358 28.8757 147.085 29.805 147.467 31.035C147.85 32.265 149.599 32.962 152.715 33.126C155.859 33.2627 158.032 34.1373 159.234 35.75C160.437 37.3627 160.697 39.2623 160.013 41.449C159.357 43.6083 158.045 45.0843 156.077 45.877C154.109 46.6697 151.841 46.861 149.271 46.451C146.729 46.041 144.748 45.016 143.326 43.376C141.932 41.7087 141.768 40.3693 142.834 39.358C143.928 38.3467 145.144 38.6337 146.483 40.219C147.823 41.8043 149.654 42.638 151.977 42.72C154.328 42.7747 155.654 41.9137 155.954 40.137C156.282 38.3603 155.039 37.3353 152.223 37.062C149.408 36.7613 147.276 36.2147 145.827 35.422C144.406 34.6293 143.572 33.3037 143.326 31.445C143.108 29.559 143.504 28.001 144.515 26.771C145.527 25.5137 146.825 24.6663 148.41 24.229ZM165.442 17.013C165.387 15.7283 166.125 15.0997 167.656 15.127C169.186 15.1543 169.924 15.8513 169.87 17.218V25.418H176.799C178.029 25.3907 178.63 26.074 178.603 27.468C178.603 28.8347 178.029 29.518 176.881 29.518H169.706L169.665 36.406C169.555 39.4673 170.471 41.244 172.412 41.736C174.38 42.2007 176.006 41.5037 177.291 39.645C178.029 37.7043 179.095 37.0757 180.489 37.759C181.91 38.415 182.088 39.809 181.022 41.941C178.944 44.7837 176.566 46.2323 173.888 46.287C171.236 46.369 169.077 45.5217 167.41 43.745C165.742 41.9683 165.045 39.481 165.319 36.283V29.518H163.638C162.462 29.5453 161.861 28.862 161.834 27.468C161.806 26.0467 162.394 25.3633 163.597 25.418H165.442V17.013Z" fill="#2C2C2C"/>
<path fill-rule="evenodd" clip-rule="evenodd" d="M208.818 41.6518L208.819 41.654C207.917 41.9273 206.974 42.064 205.99 42.064C204.699 42.064 203.495 41.825 202.378 41.3471C198.901 39.9292 196.392 36.3627 196.042 32.098C196.005 31.6842 195.986 31.2616 195.986 30.83C195.986 28.5921 196.486 26.5939 197.487 24.8353C199.249 21.6461 202.397 19.4605 206 19.5C209.275 19.4783 212.175 21.3053 213.999 24.0461C214.92 25.3915 215.522 26.8896 215.805 28.5405C215.951 29.3389 216.019 30.1627 216 31C216.058 36.0792 213.101 40.4156 208.818 41.6518ZM210.828 45.918L213.78 51.453C214.901 53.3116 216.103 53.8856 217.388 53.175C218.673 52.4643 218.809 51.1523 217.798 49.239L214.764 43.622C215.311 43.1573 215.83 42.6516 216.322 42.105C219.165 39.0436 220.586 35.3263 220.586 30.953C220.586 26.5796 219.165 22.8623 216.322 19.801C213.507 16.7123 210.063 15.168 205.99 15.168C201.945 15.168 198.501 16.7123 195.658 19.801C192.843 22.8623 191.435 26.5796 191.435 30.953C191.435 35.3263 192.856 39.0573 195.699 42.146C198.542 45.2073 201.972 46.738 205.99 46.738C207.712 46.738 209.325 46.4646 210.828 45.918ZM242.279 37.267L244.616 44.483C245.054 45.8223 245.942 46.328 247.281 46C248.648 45.6993 249.181 44.7426 248.88 43.13L240.352 17.3C240.106 15.9606 238.972 15.291 236.949 15.291C234.927 15.2636 233.669 15.9196 233.177 17.259L223.993 42.679C223.337 44.3463 223.665 45.4396 224.977 45.959C226.289 46.451 227.301 46 228.011 44.606L230.717 37.267H242.279ZM236.375 20.498H237.072L240.967 33.167H232.029L236.375 20.498Z" fill="#654DF7"/>
</svg>
